<svg width="360" height="360" viewBox="0 0 360 360" fill="none" xmlns="http://www.w3.org/2000/svg">
<rect width="360" height="360" fill="white"/>
<path d="M194.971 261.943C184.476 262.025 173.976 261.945 163.489 262.274C159.791 262.39 159.115 260.16 158.211 257.579C151.226 237.623 144.208 217.679 137.042 197.013C125.708 164.513 114.552 132.724 103.308 100.965C102.555 98.8384 101.143 96.9447 100.037 94.9425C100.964 93.9801 101.876 92.1984 102.82 92.1812C112.97 91.9962 123.13 91.9378 133.273 92.2831C134.667 92.3305 136.662 94.5202 137.23 96.1248C151.719 137.039 166.054 178.008 180.644 219.664C185.571 234.222 190.271 248.083 194.971 261.943Z" fill="#BD0605"/>
<path d="M225.063 197.055C217.989 217.209 210.946 237.375 203.784 257.498C203.184 259.183 201.782 260.582 200.267 261.724C197.14 254.189 194.596 247.004 191.83 239.907C188.831 232.209 185.624 224.593 182.508 216.941C193.187 186.286 203.856 155.627 214.553 124.978C217.899 115.391 221.474 105.881 224.618 96.2293C225.614 93.172 226.987 91.9727 230.199 92.0384C239.193 92.2226 248.193 92.1178 257.19 92.1637C259.179 92.1739 261.464 91.9564 260.652 95.7909C255.659 109.95 251.032 123.47 246.191 137.241C239.006 157.345 232.034 177.2 225.063 197.055Z" fill="#BC0604"/>
<path d="M261.572 113.06C261.676 125.375 261.855 137.691 261.868 150.006C261.906 187.297 261.889 224.587 261.872 261.877C261.869 269.34 261.847 269.215 254.766 268.015C247.227 266.737 239.666 265.489 232.066 264.694C227.635 264.23 225.838 262.774 225.935 257.97C226.257 241.995 226.095 226.01 226.321 209.529C226.523 209.03 226.885 208.947 227.143 208.72C229.246 203.595 231.144 198.716 232.927 193.795C237.541 181.053 242.237 168.337 246.626 155.517C248.47 150.132 249.623 144.511 251.092 138.678C251.109 137.934 251.125 137.51 251.393 136.866C255.12 129.689 260.492 123.458 259.95 114.635C259.975 113.874 259.99 113.439 260.266 113.017C260.876 113.04 261.224 113.05 261.572 113.06Z" fill="#7E0804"/>
<path d="M100.572 129.099C100.515 124.119 100.458 119.14 100.634 113.953C101.39 114.951 101.993 116.129 102.425 117.366C107.602 132.193 112.768 147.024 117.907 161.863C121.372 171.868 124.654 181.939 128.318 191.87C129.282 194.483 131.361 196.684 132.964 199.386C133.053 200.113 133.106 200.529 133.041 201.263C133.853 204.091 134.783 206.6 135.713 209.109C135.798 226.039 135.841 242.969 136.009 259.898C136.038 262.834 134.831 263.949 132.019 264.347C122.664 265.672 113.349 267.286 103.986 268.546C102.92 268.69 101.646 267.297 100.708 265.957C101.294 263.195 101.938 261.093 101.941 258.991C102 217.926 102.006 176.86 101.923 135.795C101.919 133.562 101.042 131.331 100.572 129.099Z" fill="#7E0804"/>
<path d="M133.159 200.945C133.106 200.529 133.053 200.113 132.906 198.997C131.794 194.61 130.98 190.855 129.729 187.251C121.775 164.336 113.757 141.443 105.677 118.573C104.084 114.066 102.127 109.688 100.338 105.251C100.233 102.125 100.128 98.9995 100.03 95.4082C101.143 96.9447 102.555 98.8384 103.308 100.965C114.552 132.724 125.708 164.513 136.903 196.674C136.583 198.176 136.245 199.299 135.511 200.742C134.463 201.022 133.811 200.983 133.159 200.945Z" fill="#360403"/>
<path d="M100.308 105.684C102.127 109.688 104.085 114.066 105.677 118.573C113.757 141.443 121.775 164.336 129.729 187.251C130.98 190.855 131.794 194.611 132.869 198.685C131.361 196.684 129.282 194.483 128.318 191.87C124.654 181.94 121.372 171.868 117.907 161.864C112.768 147.024 107.602 132.193 102.425 117.366C101.993 116.129 101.39 114.951 100.672 113.503C100.411 110.88 100.345 108.499 100.308 105.684Z" fill="#580403"/>
<path d="M100.492 129.555C101.042 131.331 101.918 133.562 101.923 135.795C102.006 176.861 102 217.926 101.941 258.992C101.938 261.094 101.294 263.195 100.762 265.592C100.485 262.894 100.315 259.902 100.317 256.91C100.335 214.61 100.376 172.31 100.492 129.555Z" fill="#8D0905"/>
<path d="M225.263 197.35C232.034 177.2 239.006 157.345 246.465 137.059C247.652 136.098 248.351 135.569 249.045 135.441C249.064 136.92 249.089 137.998 248.966 139.402C245.211 149.521 241.391 159.242 238.062 169.129C234.962 178.334 232.471 187.744 229.495 196.993C228.993 198.553 227.391 199.758 226.297 201.127C226.02 199.966 225.742 198.806 225.263 197.35Z" fill="#480504"/>
<path d="M226.271 201.553C227.391 199.758 228.993 198.552 229.495 196.993C232.471 187.743 234.962 178.334 238.062 169.128C241.391 159.242 245.211 149.521 249.293 139.387C250.209 139.029 250.65 139.013 251.091 138.997C249.623 144.511 248.47 150.132 246.626 155.517C242.237 168.337 237.541 181.053 232.927 193.795C231.144 198.716 229.246 203.595 227.031 208.554C226.518 208.387 226.356 208.172 226.178 207.97C226.2 205.973 226.222 203.976 226.271 201.553Z" fill="#6F0604"/>
<path d="M182.313 217.199C185.624 224.593 188.831 232.209 191.831 239.906C194.596 247.004 197.14 254.189 199.893 261.684C198.541 262.033 197.077 262.033 195.292 261.988C190.271 248.083 185.571 234.222 180.833 220.007C181.236 218.921 181.677 218.189 182.313 217.199Z" fill="#830604"/>
<path d="M249.051 135.039C248.351 135.569 247.652 136.098 246.678 136.809C251.032 123.47 255.659 109.95 260.566 96.2017C261.203 98.7353 261.56 101.496 261.628 104.896C260.859 106.662 260.379 107.79 259.876 109.146C259.852 109.375 259.822 109.835 259.576 110.065C258.244 112.87 257.159 115.445 256.009 118.388C255.586 120.45 255.229 122.146 254.59 124.03C253.57 125.819 252.831 127.421 252.06 129.404C251.656 131.488 251.285 133.19 250.602 134.912C249.878 134.967 249.464 135.003 249.051 135.039Z" fill="#3D0503"/>
<path d="M133.041 201.263C133.811 200.983 134.463 201.022 135.44 201.091C135.787 203.488 135.809 205.855 135.772 208.665C134.783 206.6 133.853 204.091 133.041 201.263Z" fill="#580403"/>
<path d="M259.9 108.917C260.379 107.79 260.859 106.662 261.574 105.336C261.787 106.186 261.764 107.235 261.394 108.656C260.664 108.991 260.282 108.954 259.9 108.917Z" fill="#5E0505"/>
<path d="M259.876 109.146C260.282 108.954 260.664 108.991 261.332 109.045C261.647 110.131 261.675 111.199 261.638 112.664C261.224 113.05 260.876 113.04 260.25 112.622C259.923 111.421 259.873 110.628 259.823 109.835C259.823 109.835 259.852 109.375 259.876 109.146Z" fill="#6F0604"/>
<path d="M226.15 208.253C226.357 208.172 226.518 208.387 226.774 208.781C226.885 208.947 226.523 209.03 226.342 209.067C226.147 208.916 226.135 208.726 226.15 208.253Z" fill="#480504"/>
<path d="M250.913 134.892C251.285 133.19 251.656 131.488 252.311 129.201C253.353 127.025 254.112 125.434 254.871 123.842C255.229 122.146 255.586 120.45 256.262 118.214C257.7 116.77 258.82 115.866 259.94 114.961C260.492 123.458 255.12 129.689 251.354 136.5C251.012 135.867 250.963 135.379 250.913 134.892Z" fill="#6F0604"/>
<path d="M259.95 114.635C258.82 115.866 257.7 116.77 256.327 117.847C257.159 115.445 258.244 112.87 259.576 110.064C259.872 110.628 259.923 111.421 259.989 112.609C259.99 113.439 259.975 113.874 259.95 114.635Z" fill="#5E0505"/>
<path d="M250.602 134.911C250.963 135.379 251.012 135.866 251.101 136.72C251.125 137.51 251.109 137.934 251.092 138.678C250.65 139.013 250.209 139.029 249.441 139.06C249.089 137.998 249.064 136.92 249.045 135.441C249.464 135.003 249.878 134.967 250.602 134.911Z" fill="#5E0505"/>
<path d="M254.591 124.03C254.112 125.434 253.353 127.025 252.343 128.819C252.831 127.421 253.57 125.819 254.591 124.03Z" fill="#5E0505"/>
</svg>
